<svg width="20" height="18" viewBox="0 0 20 18" fill="none" xmlns="http://www.w3.org/2000/svg">
<path d="M10.3664 0.376776C10.6008 0.135527 10.9187 0 11.2502 0C11.5816 0 11.8995 0.135527 12.1339 0.376776L19.634 8.09796C19.8684 8.33928 20 8.66654 20 9.00777C20 9.349 19.8684 9.67626 19.634 9.91758L12.1339 17.6388C11.8982 17.8732 11.5824 18.0029 11.2546 18C10.9269 17.997 10.6134 17.8617 10.3816 17.6231C10.1499 17.3845 10.0184 17.0617 10.0155 16.7243C10.0127 16.3869 10.1387 16.0618 10.3664 15.8191L15.7327 10.2946H1.25002C0.918492 10.2946 0.600545 10.1591 0.366122 9.91772C0.131698 9.67638 0 9.34907 0 9.00777C0 8.66647 0.131698 8.33915 0.366122 8.09782C0.600545 7.85649 0.918492 7.7209 1.25002 7.7209H15.7327L10.3664 2.1964C10.132 1.95508 10.0004 1.62782 10.0004 1.28659C10.0004 0.945358 10.132 0.618099 10.3664 0.376776Z" fill="#363062"/>
</svg>
